<?xml version="1.0" encoding="utf-8"?>
<!-- Generator: Adobe Illustrator 16.0.3, SVG Export Plug-In . SVG Version: 6.00 Build 0)  -->
<!DOCTYPE svg PUBLIC "-//W3C//DTD SVG 1.1//EN" "http://www.w3.org/Graphics/SVG/1.1/DTD/svg11.dtd">
<svg version="1.1" id="Capa_1" xmlns="http://www.w3.org/2000/svg" xmlns:xlink="http://www.w3.org/1999/xlink" x="0px" y="0px"
	 width="177.585px" height="187px" viewBox="0 0 177.585 187" enable-background="new 0 0 177.585 187" xml:space="preserve">
<path fill="#D4AF37" stroke="#D4AF37" stroke-miterlimit="10" d="M131,86.796v92.392h6.5v-166c0,0,7-0.5,7,4v162H167v-137
	c0-36-36-35.5-36-35.5v75.457H75.15V28.582c0.886-10.409,10.043-18.131,20.453-17.244c10.41,0.886,18.132,10.043,17.245,20.453
	c-0.839,9.861-9.099,17.309-18.814,17.314L94,53.688c12.979,0,23.5-10.521,23.5-23.501c0-12.978-10.521-23.5-23.5-23.5
	s-23.5,10.522-23.5,23.5v51.958H26.959C16.549,81.259,8.828,72.101,9.714,61.691C10.6,51.281,19.757,43.56,30.168,44.445
	c9.844,0.838,17.283,9.071,17.314,18.767l4.582,0.083c0-12.979-10.522-23.5-23.502-23.5c-12.978,0-23.5,10.521-23.5,23.5
	s10.522,23.5,23.5,23.5H70.5l0.076,60.989c-1.439,16.902-16.309,29.439-33.21,28.001c-16.903-1.438-29.44-16.308-28.001-33.211
	c1.221-14.349,12.119-25.551,25.727-27.729v5.236c-7.623,1.818-13.195,7.609-13.195,14.472c0,8.321,8.193,15.067,18.302,15.067
	c0,0,19.552,0.816,19.552-20.434c0-19.199-19.779-19.142-19.779-19.142c-19.404,0-35.134,15.729-35.134,35.134
	c0,19.403,15.729,35.133,35.134,35.133c19.403,0,35.133-15.729,35.133-35.133V86.813L131,86.796z"/>
</svg>
